<svg width="30" height="30" viewBox="0 0 30 30" fill="none" xmlns="http://www.w3.org/2000/svg">
<g clip-path="url(#clip0_967_8044)">
<path fill-rule="evenodd" clip-rule="evenodd" d="M15 30C23.2843 30 30 23.2843 30 15C30 6.71573 23.2843 0 15 0C6.71573 0 0 6.71573 0 15C0 23.2843 6.71573 30 15 30ZM13.504 13.445C14.1789 12.7975 15.0828 12.4034 16.0458 12.3369C20.0929 12.3369 20.2447 16.6642 20.2447 16.6642C20.2731 17.2085 20.1866 17.7526 19.99 18.2653C19.7934 18.7781 19.4907 19.2493 19.0993 19.652C18.7079 20.0547 18.2354 20.3809 17.7092 20.6119C17.1829 20.8428 16.6131 20.974 16.0326 20.9978C15.5389 21.0165 15.0484 20.9152 14.6088 20.7036C14.1693 20.4921 13.7955 20.1776 13.5238 19.7906V20.7068H10.5V9H13.504V13.445ZM14.3182 18.2241C14.6341 18.422 15.0056 18.5277 15.3856 18.5277V18.5029C15.8906 18.503 16.3753 18.3166 16.7348 17.984C17.0944 17.6515 17.2999 17.1996 17.3068 16.7262C17.3068 16.3698 17.1941 16.0215 16.983 15.7253C16.7719 15.429 16.4719 15.1981 16.1208 15.0617C15.7697 14.9254 15.3834 14.8897 15.0108 14.9592C14.6381 15.0287 14.2958 15.2003 14.0271 15.4523C13.7584 15.7042 13.5754 16.0252 13.5013 16.3747C13.4271 16.7241 13.4652 17.0864 13.6106 17.4156C13.756 17.7447 14.0023 18.0261 14.3182 18.2241Z" fill="white"/>
</g>
<defs>
<clipPath id="clip0_967_8044">
<rect width="30" height="30" fill="white"/>
</clipPath>
</defs>
</svg>
