<svg width="30" height="30" viewBox="0 0 30 30" fill="none" xmlns="http://www.w3.org/2000/svg">
<g clip-path="url(#clip0_967_8040)">
<path fill-rule="evenodd" clip-rule="evenodd" d="M15 30C23.2843 30 30 23.2843 30 15C30 6.71573 23.2843 0 15 0C6.71573 0 0 6.71573 0 15C0 23.2843 6.71573 30 15 30ZM15.8943 15.5265V21L13.7815 20.9944V15.5209H12V13.3874H13.7743V11.8201C13.7743 9.99377 14.8468 9.0001 16.4145 9.0001C16.9441 8.99809 17.4733 9.02588 18 9.08337V10.9874H16.9133C16.06 10.9874 15.8943 11.4075 15.8943 12.0255V13.3874H17.9287L17.6633 15.5265H15.8943Z" fill="white"/>
</g>
<defs>
<clipPath id="clip0_967_8040">
<rect width="30" height="30" fill="white"/>
</clipPath>
</defs>
</svg>
