<svg width="30" height="30" viewBox="0 0 30 30" fill="none" xmlns="http://www.w3.org/2000/svg">
<g clip-path="url(#clip0_967_8046)">
<path fill-rule="evenodd" clip-rule="evenodd" d="M15 30C23.2843 30 30 23.2843 30 15C30 6.71573 23.2843 0 15 0C6.71573 0 0 6.71573 0 15C0 23.2843 6.71573 30 15 30ZM9.20602 12.9851H11.794V21H9.20602V12.9851ZM10.5 9C10.7968 9 11.0869 9.08486 11.3336 9.24383C11.5803 9.40281 11.7726 9.62875 11.886 9.89309C11.9995 10.1574 12.0291 10.4483 11.971 10.7288C11.9129 11.0093 11.7698 11.267 11.5598 11.4691C11.3498 11.6712 11.0823 11.8087 10.7912 11.8643C10.5001 11.9198 10.1984 11.8909 9.92437 11.7811C9.65032 11.6713 9.41622 11.4856 9.25167 11.2476C9.08713 11.0095 8.99954 10.7297 9 10.4437C9 10.2539 9.03882 10.066 9.11423 9.89067C9.18964 9.71538 9.30017 9.55614 9.43948 9.42205C9.5788 9.28796 9.74418 9.18167 9.92615 9.10925C10.1081 9.03683 10.3031 8.99971 10.5 9ZM13.5002 12.9512H15.8055V14.0514H15.8378C16.0688 13.6407 16.4026 13.3029 16.8037 13.074C17.2048 12.8452 17.6581 12.7338 18.1152 12.7518C20.5499 12.7518 21.0002 14.4167 21.0002 16.5857V20.9999H18.5957V17.0854C18.5957 16.151 18.5806 14.9522 17.346 14.9522C16.1115 14.9522 15.9025 15.9695 15.9025 17.0182V20.9999H13.5002V12.9512Z" fill="white"/>
</g>
<defs>
<clipPath id="clip0_967_8046">
<rect width="30" height="30" fill="white"/>
</clipPath>
</defs>
</svg>
