<svg width="32" height="32" viewBox="0 0 32 32" fill="none" xmlns="http://www.w3.org/2000/svg">
<circle cx="16" cy="16" r="16" fill="#172C56"/>
<path d="M19.7084 8.66956L17.8569 8.6665C15.7768 8.6665 14.4325 10.0832 14.4325 12.276V13.9402H12.5709C12.4101 13.9402 12.2798 14.0742 12.2798 14.2394V16.6507C12.2798 16.8159 12.4102 16.9497 12.5709 16.9497H14.4325V23.0341C14.4325 23.1994 14.5628 23.3332 14.7237 23.3332H17.1525C17.3134 23.3332 17.4437 23.1992 17.4437 23.0341V16.9497H19.6203C19.7812 16.9497 19.9114 16.8159 19.9114 16.6507L19.9123 14.2394C19.9123 14.1601 19.8816 14.0841 19.8271 14.0279C19.7726 13.9718 19.6983 13.9402 19.6211 13.9402H17.4437V12.5294C17.4437 11.8514 17.601 11.5071 18.4608 11.5071L19.7081 11.5067C19.8688 11.5067 19.9991 11.3727 19.9991 11.2076V8.96862C19.9991 8.80368 19.869 8.66986 19.7084 8.66956Z" fill="white"/>
</svg>
