<svg width="222" height="100" viewBox="0 0 222 100" fill="none" xmlns="http://www.w3.org/2000/svg">
<g clip-path="url(#clip0_320_1351)">
<path d="M157.619 14.1261C153.044 15.9948 147.509 16.3371 140.871 15.5234C135.332 14.8451 128.66 13.0571 119.481 10.2814C107.589 6.68479 89.3094 2.40347 75.8015 8.31945C65.1659 12.9778 61.2575 22.4211 65.3362 30.8311L66.8318 30.0777C64.5882 24.7554 65.6386 19.6261 69.3698 15.5794C71.2025 13.5914 73.631 11.8448 76.692 10.6401C88.7988 5.87478 108.351 9.38978 120.075 12.7531C131.084 15.9108 139.783 18.0081 147.904 17.7518C151.607 17.6354 155.047 16.9874 158.247 15.6811L157.619 14.1261Z" fill="#172C56"/>
<path d="M116.856 14.959C108.6 19.9007 105.444 25.8123 99.5456 34.9657C95.4212 41.3656 89.2989 53.2533 79.6814 53.3733C76.5373 53.4123 74.0561 52.5606 72.6072 50.8463C71.2317 49.2189 71.214 47.3196 71.205 46.5776L69.3322 46.601C69.3439 47.544 69.4093 49.9593 71.1743 52.0476C73.0017 54.2096 75.9732 55.2853 79.7048 55.2383C91.0409 55.0963 98.7956 41.491 102.35 35.5273C107.782 26.413 111.282 20.018 117.79 16.5757L116.856 14.959ZM130.432 40.2113C132.237 36.9996 135.304 34.4323 136.474 35.2807C137.618 36.1106 136.274 39.2906 134.532 41.3723C133.054 43.139 130.808 44.9673 128.215 46.3256C128.447 44.6956 128.988 42.781 130.432 40.2113ZM148.987 40.818C145.242 48.246 139.737 51.8199 135.834 52.6879C133.565 53.1933 131.554 52.8756 130.173 51.7946C129.483 51.2553 128.356 49.8846 128.241 48.1946C131.188 46.7886 133.933 44.7746 135.864 42.4773C138.031 39.9 138.984 37.5056 138.702 35.674C138.568 34.794 138.143 34.1017 137.473 33.6717C136.774 33.222 135.899 33.1083 134.945 33.3457C132.821 33.8717 130.424 36.1157 128.689 39.2016C127.933 40.545 126.283 43.808 126.285 47.128C124.292 47.9746 120.763 48.834 119.976 47.7953C117.666 44.7433 127.906 36.472 123.403 34.2747C122.286 33.7297 119.935 33.6106 116.512 36.4006L140.014 0.000411987H137.643L105.718 49.167H108.29C112.46 42.7026 114.741 40.0043 116.721 38.356C121.269 34.5703 122.999 35.8423 121.754 37.8603C117.905 44.1026 116.152 47.201 117.969 49.1513C119.832 51.1513 124.42 49.7259 126.468 48.93C126.789 50.4666 127.586 51.9656 129.102 53.1519C130.365 54.1403 131.987 54.6483 133.806 54.6483C134.576 54.6483 135.382 54.5573 136.212 54.3729C141.686 53.1553 146.83 48.0856 150.191 41.4196L148.987 40.818ZM37.8789 61.6279H29.8431V99.2058H48.414L50.2607 92.3205H37.8792L37.8789 61.6279ZM90.0282 68.5129V99.2058H98.0363V68.5129H105.895V61.6279H82.2077L80.3603 68.5129H90.0282ZM112.084 99.2058H120.175V61.6276H112.084V99.2058ZM145.258 61.6279V79.0309C145.258 81.5695 145.546 83.7402 145.546 83.7402H145.056C145.056 83.7402 144.538 81.7162 143.997 80.2675C143.226 78.2012 137.383 63.3192 136.762 61.7712L136.732 61.6283H128.411V99.2058H136.059V81.8035C136.059 79.2649 135.771 77.0942 135.771 77.0942H136.261C136.261 77.0942 136.779 79.1182 137.32 80.5669C138.091 82.6332 143.934 97.5152 144.554 99.0632L144.584 99.2058H152.905V61.6276L145.258 61.6279ZM207.229 77.3475L212.982 61.6279H221.999V99.2058H214.185V80.4169C214.185 77.3659 214.539 74.9502 214.539 74.9502H213.996C213.996 74.9502 213.664 76.4549 212.879 78.2852C212.094 80.1152 207.229 91.7418 207.229 91.7418C207.229 91.7418 202.363 80.1152 201.578 78.2852C200.793 76.4549 200.461 74.9506 200.461 74.9506H199.918C199.918 74.9506 200.272 77.3659 200.272 80.4172V99.2058H192.458V61.6279H201.475L207.229 77.3475ZM168.019 88.1075V61.6279H160.036V88.0175C160.036 97.9212 167.059 100 172.626 100C178.193 100 185.216 97.9212 185.216 88.0172V61.6283H177.233V88.1082C177.233 91.6682 175.506 93.3262 172.627 93.3262C169.746 93.3262 168.019 91.6685 168.019 88.1079M11.4768 80.9855H8.09039V68.4459H11.4768C15.3288 68.4459 15.941 72.1269 15.941 74.5796C15.941 77.0319 15.3288 80.9855 11.4768 80.9855ZM13.5719 61.6279H-0.000488281V99.2058H8.09039V87.8035H13.5719C21.5282 87.8035 23.9955 80.1629 23.9955 74.7156C23.9955 69.2689 21.5282 61.6279 13.5719 61.6279ZM63.8745 85.4299L65.9916 75.7622C66.5356 73.1592 66.6624 71.3472 66.6624 71.3472H67.2709C67.2709 71.3472 67.3971 73.1592 67.9408 75.7622L70.0582 85.4299H63.8745ZM71.2547 61.6279H62.6779L52.6028 99.2062H60.9316L62.7724 91.3252H71.1603L73.0014 99.2062H81.3299L71.2547 61.6279Z" fill="#172C56"/>
</g>
<defs>
<clipPath id="clip0_320_1351">
<rect width="222" height="100" fill="white"/>
</clipPath>
</defs>
</svg>
