<svg width="24" height="24" viewBox="0 0 24 24" fill="none" xmlns="http://www.w3.org/2000/svg">
<path d="M20.0045 10.2776L12.504 3.45873C12.3659 3.33321 12.186 3.26367 11.9995 3.26367C11.8129 3.26368 11.633 3.33324 11.4949 3.45876L3.99545 10.2776C3.91814 10.3479 3.85637 10.4336 3.8141 10.5292C3.77183 10.6247 3.75 10.7281 3.75 10.8326V19.5008C3.75 19.6997 3.82902 19.8905 3.96967 20.0311C4.11032 20.1718 4.30109 20.2508 4.5 20.2508H19.5C19.6989 20.2508 19.8897 20.1718 20.0303 20.0311C20.171 19.8905 20.25 19.6997 20.25 19.5008V10.8326C20.25 10.7281 20.2282 10.6247 20.1859 10.5292C20.1436 10.4336 20.0818 10.3479 20.0045 10.2776Z" stroke="#172C56" stroke-linecap="round" stroke-linejoin="round"/>
</svg>
