<svg width="32" height="32" viewBox="0 0 32 32" fill="none" xmlns="http://www.w3.org/2000/svg">
<circle cx="16" cy="16" r="16" fill="#172C56"/>
<path fill-rule="evenodd" clip-rule="evenodd" d="M9.3335 12.9335C9.3335 11.4336 9.3335 10.6837 9.71546 10.1579C9.83882 9.98814 9.98814 9.83882 10.1579 9.71546C10.6837 9.3335 11.4336 9.3335 12.9335 9.3335H19.0668C20.5667 9.3335 21.3167 9.3335 21.8424 9.71546C22.0122 9.83882 22.1615 9.98814 22.2849 10.1579C22.6668 10.6837 22.6668 11.4336 22.6668 12.9335V19.0668C22.6668 20.5667 22.6668 21.3167 22.2849 21.8424C22.1615 22.0122 22.0122 22.1615 21.8424 22.2849C21.3167 22.6668 20.5667 22.6668 19.0668 22.6668H12.9335C11.4336 22.6668 10.6837 22.6668 10.1579 22.2849C9.98814 22.1615 9.83882 22.0122 9.71546 21.8424C9.3335 21.3167 9.3335 20.5667 9.3335 19.0668V12.9335ZM16.0002 12.4708C14.051 12.4708 12.4708 14.051 12.4708 16.0002C12.4708 17.9493 14.051 19.5296 16.0002 19.5296C17.9493 19.5296 19.5296 17.9493 19.5296 16.0002C19.5296 14.051 17.9493 12.4708 16.0002 12.4708ZM16.0002 18.206C14.7843 18.206 13.7943 17.216 13.7943 16.0002C13.7943 14.7834 14.7843 13.7943 16.0002 13.7943C17.216 13.7943 18.206 14.7834 18.206 16.0002C18.206 17.216 17.216 18.206 16.0002 18.206ZM20.2646 12.2061C20.2646 12.4658 20.054 12.6763 19.7943 12.6763C19.5346 12.6763 19.324 12.4658 19.324 12.2061C19.324 11.9463 19.5346 11.7358 19.7943 11.7358C20.054 11.7358 20.2646 11.9463 20.2646 12.2061Z" fill="white"/>
</svg>
