<svg width="178" height="80" viewBox="0 0 178 80" fill="none" xmlns="http://www.w3.org/2000/svg">
<g clip-path="url(#clip0_610_6123)">
<path d="M126.38 11.3001C122.711 12.795 118.274 13.0689 112.951 12.418C108.51 11.8753 103.16 10.4449 95.8008 8.22437C86.2656 5.34705 71.6088 1.92199 60.7781 6.65478C52.2505 10.3814 49.1168 17.9361 52.387 24.6641L53.5862 24.0614C51.7873 19.8035 52.6295 15.7001 55.6212 12.4628C57.0906 10.8724 59.0378 9.47503 61.4921 8.5113C71.1994 4.69905 86.8761 7.51105 96.2769 10.2017C105.104 12.7278 112.078 14.4057 118.59 14.2006C121.559 14.1076 124.318 13.5892 126.883 12.5441L126.38 11.3001Z" fill="#172C56"/>
<path d="M93.6954 11.9668C87.0761 15.9202 84.5456 20.6495 79.8162 27.9721C76.5093 33.0921 71.6004 42.6022 63.8891 42.6982C61.3681 42.7294 59.3787 42.0481 58.2169 40.6766C57.1141 39.3748 57.0999 37.8553 57.0927 37.2617L55.5911 37.2804C55.6005 38.0348 55.6529 39.967 57.0681 41.6377C58.5333 43.3673 60.9159 44.2278 63.9078 44.1902C72.9971 44.0766 79.2149 33.1924 82.0645 28.4215C86.4199 21.13 89.2262 16.014 94.4444 13.2602L93.6954 11.9668ZM104.581 32.1687C106.028 29.5993 108.488 27.5455 109.426 28.2241C110.343 28.8881 109.265 31.4321 107.869 33.0975C106.684 34.5108 104.883 35.9734 102.804 37.0601C102.989 35.7561 103.423 34.2244 104.581 32.1687ZM119.459 32.654C116.455 38.5964 112.042 41.4556 108.913 42.15C107.093 42.5542 105.481 42.3001 104.373 41.4353C103.82 41.0038 102.916 39.9073 102.824 38.5553C105.187 37.4305 107.388 35.8193 108.936 33.9815C110.674 31.9196 111.438 30.0041 111.212 28.5388C111.104 27.8348 110.764 27.2809 110.227 26.9369C109.666 26.5772 108.965 26.4863 108.2 26.6761C106.496 27.0969 104.574 28.8921 103.183 31.3609C102.578 32.4356 101.254 35.046 101.256 37.702C99.6576 38.3793 96.8283 39.0668 96.1976 38.2358C94.3454 35.7943 102.556 29.1772 98.9452 27.4193C98.0495 26.9833 96.1641 26.8881 93.4197 29.1201L112.264 -6.10352e-05H110.363L84.7655 39.3332H86.8278C90.1714 34.1617 91.9997 32.0031 93.5878 30.6844C97.2341 27.6559 98.6208 28.6735 97.6229 30.2879C94.5368 35.2817 93.1312 37.7604 94.5881 39.3206C96.0817 40.9206 99.7609 39.7804 101.402 39.1436C101.66 40.3729 102.299 41.5721 103.515 42.5212C104.527 43.3118 105.828 43.7182 107.287 43.7182C107.904 43.7182 108.55 43.6454 109.215 43.498C113.605 42.5238 117.729 38.4681 120.424 33.1353L119.459 32.654ZM30.3718 49.3019H23.9286V79.3643H38.8188L40.2995 73.856H30.372L30.3718 49.3019ZM72.1852 54.8099V79.3643H78.6061V54.8099H84.9074V49.3019H65.9147L64.4334 54.8099H72.1852ZM89.8698 79.3643H96.3568V49.3017H89.8698V79.3643ZM116.468 49.3019V63.2243C116.468 65.2552 116.699 66.9918 116.699 66.9918H116.306C116.306 66.9918 115.891 65.3726 115.457 64.2136C114.839 62.5606 110.154 50.655 109.657 49.4166L109.633 49.3022H102.96V79.3643H109.092V65.4424C109.092 63.4115 108.861 61.675 108.861 61.675H109.255C109.255 61.675 109.67 63.2942 110.104 64.4531C110.722 66.1062 115.407 78.0117 115.904 79.2501L115.928 79.3643H122.6V49.3017L116.468 49.3019ZM166.157 61.8776L170.77 49.3019H178V79.3643H171.734V64.3331C171.734 61.8923 172.018 59.9598 172.018 59.9598H171.583C171.583 59.9598 171.317 61.1635 170.687 62.6278C170.057 64.0918 166.157 73.3931 166.157 73.3931C166.157 73.3931 162.255 64.0918 161.626 62.6278C160.997 61.1635 160.73 59.9601 160.73 59.9601H160.295C160.295 59.9601 160.579 61.8923 160.579 64.3334V79.3643H154.314V49.3019H161.543L166.157 61.8776ZM134.719 70.4856V49.3019H128.318V70.4136C128.318 78.3365 133.948 80 138.412 80C142.876 80 148.507 78.3365 148.507 70.4134V49.3022H142.106V70.4862C142.106 73.3341 140.721 74.6605 138.413 74.6605C136.103 74.6605 134.719 73.3344 134.719 70.4859M9.20252 64.788H6.48728V54.7563H9.20252C12.2911 54.7563 12.7819 57.7011 12.7819 59.6633C12.7819 61.6251 12.2911 64.788 9.20252 64.788ZM10.8823 49.3019H0V79.3643H6.48728V70.2424H10.8823C17.2618 70.2424 19.24 64.1299 19.24 59.7721C19.24 55.4147 17.2618 49.3019 10.8823 49.3019ZM51.215 68.3435L52.9125 60.6094C53.3488 58.527 53.4504 57.0774 53.4504 57.0774H53.9383C53.9383 57.0774 54.0395 58.527 54.4754 60.6094L56.1732 68.3435H51.215ZM57.1326 49.3019H50.2556L42.1774 79.3645H48.8555L50.3314 73.0598H57.0568L58.533 79.3645H65.2108L57.1326 49.3019Z" fill="#172C56"/>
</g>
<defs>
<clipPath id="clip0_610_6123">
<rect width="178" height="80" fill="white"/>
</clipPath>
</defs>
</svg>
