<svg width="64" height="28" viewBox="0 0 64 28" fill="none" xmlns="http://www.w3.org/2000/svg">
<g clip-path="url(#clip0_394_1982)">
<path d="M45.0828 3.95536C43.7989 4.47859 42.2457 4.57444 40.3827 4.34662C38.8283 4.15668 36.9559 3.65604 34.3802 2.87886C31.0429 1.8718 25.913 0.673027 22.1223 2.3295C19.1376 3.63383 18.0408 6.27796 19.1854 8.63275L19.6051 8.42182C18.9755 6.93157 19.2703 5.49536 20.3174 4.3623C20.8317 3.80566 21.5132 3.31659 22.3722 2.97929C25.7697 1.645 31.2566 2.6292 34.5469 3.57093C37.6363 4.45507 40.0773 5.04232 42.3564 4.97055C43.3955 4.93798 44.3611 4.75654 45.2589 4.39076L45.0828 3.95536Z" fill="#172C56"/>
<path d="M33.6435 4.18852C31.3267 5.57218 30.441 7.22744 28.7858 9.79037C27.6284 11.5824 25.9103 14.9109 23.2113 14.9445C22.3289 14.9554 21.6326 14.717 21.226 14.2369C20.84 13.7813 20.8351 13.2495 20.8325 13.0417L20.307 13.0483C20.3103 13.3123 20.3286 13.9886 20.8239 14.5733C21.3367 15.1787 22.1707 15.4799 23.2178 15.4667C26.3991 15.4269 28.5753 11.6175 29.5727 9.94764C31.0971 7.39563 32.0793 5.60503 33.9056 4.64118L33.6435 4.18852ZM37.4534 11.2592C37.9601 10.3599 38.8208 9.64104 39.1491 9.87857C39.4701 10.111 39.0929 11.0014 38.6041 11.5842C38.1894 12.0789 37.559 12.5908 36.8314 12.9712C36.8964 12.5148 37.0481 11.9787 37.4534 11.2592ZM42.6607 11.429C41.6095 13.5089 40.0647 14.5096 38.9695 14.7526C38.3326 14.8941 37.7684 14.8052 37.3806 14.5025C37.1872 14.3515 36.8708 13.9677 36.8386 13.4945C37.6657 13.1008 38.4359 12.5369 38.9778 11.8936C39.5859 11.172 39.8533 10.5016 39.7744 9.9887C39.7365 9.7423 39.6174 9.54845 39.4295 9.42805C39.2332 9.30215 38.9878 9.27032 38.72 9.33677C38.1238 9.48405 37.4511 10.1124 36.9642 10.9764C36.7522 11.3526 36.2891 12.2662 36.2898 13.1958C35.7303 13.4329 34.74 13.6735 34.5192 13.3827C33.871 12.5281 36.7447 10.2121 35.4809 9.59689C35.1674 9.44429 34.5075 9.41097 33.547 10.1922L40.1424 0.000102997H39.4772L30.518 13.7667H31.2398C32.4101 11.9567 33.05 11.2012 33.6058 10.7397C34.882 9.67967 35.3674 10.0358 35.0181 10.6009C33.938 12.3487 33.446 13.2163 33.9559 13.7623C34.4787 14.3223 35.7664 13.9233 36.341 13.7004C36.4312 14.1306 36.6547 14.5504 37.0803 14.8825C37.4347 15.1593 37.8899 15.3015 38.4004 15.3015C38.6165 15.3015 38.8427 15.276 39.0754 15.2244C40.6117 14.8835 42.0551 13.464 42.9984 11.5975L42.6607 11.429ZM11.4802 17.2558H9.22512V27.7776H14.4367L14.9549 25.8497H11.4803L11.4802 17.2558ZM26.1149 19.1836V27.7776H28.3622V19.1836H30.5677V17.2558H23.9202L23.4018 19.1836H26.1149ZM32.3045 27.7776H34.575V17.2557H32.3045V27.7776ZM41.614 17.2558V22.1286C41.614 22.8395 41.6948 23.4472 41.6948 23.4472H41.5573C41.5573 23.4472 41.4119 22.8805 41.2601 22.4749C41.0437 21.8963 39.4041 17.7294 39.23 17.2959L39.2215 17.2559H36.8863V27.7776H39.0324V22.905C39.0324 22.1941 38.9516 21.5864 38.9516 21.5864H39.0893C39.0893 21.5864 39.2347 22.1531 39.3864 22.5587C39.6028 23.1373 41.2424 27.3042 41.4164 27.7377L41.4248 27.7776H43.76V17.2557L41.614 17.2558ZM59.0049 21.6573L60.6196 17.2558H63.1499V27.7776H60.9571V22.5167C60.9571 21.6624 61.0564 20.986 61.0564 20.986H60.9041C60.9041 20.986 60.811 21.4074 60.5907 21.9198C60.3702 22.4322 59.0049 25.6877 59.0049 25.6877C59.0049 25.6877 57.6395 22.4322 57.4192 21.9198C57.1989 21.4074 57.1057 20.9861 57.1057 20.9861H56.9535C56.9535 20.9861 57.0528 21.6624 57.0528 22.5168V27.7776H54.8599V17.2558H57.3902L59.0049 21.6573ZM48.0016 24.6701V17.2558H45.7613V24.6449C45.7613 27.4179 47.732 28.0001 49.2944 28.0001C50.8568 28.0001 52.8276 27.4179 52.8276 24.6448V17.2559H50.5871V24.6703C50.5871 25.6671 50.1026 26.1313 49.2945 26.1313C48.4863 26.1313 48.0016 25.6672 48.0016 24.6702M4.07098 22.6759H3.12065V19.1648H4.07098C5.15197 19.1648 5.32376 20.1955 5.32376 20.8823C5.32376 21.5689 5.15197 22.6759 4.07098 22.6759ZM4.65892 17.2558H0.850098V27.7776H3.12065V24.585H4.65892C6.89172 24.585 7.5841 22.4456 7.5841 20.9203C7.5841 19.3953 6.89172 17.2558 4.65892 17.2558ZM18.7754 23.9203L19.3695 21.2134C19.5222 20.4846 19.5578 19.9772 19.5578 19.9772H19.7285C19.7285 19.9772 19.7639 20.4846 19.9165 21.2134L20.5107 23.9203H18.7754ZM20.8465 17.2558H18.4396L15.6122 27.7777H17.9495L18.4661 25.571H20.82L21.3367 27.7777H23.6739L20.8465 17.2558Z" fill="#172C56"/>
</g>
<defs>
<clipPath id="clip0_394_1982">
<rect width="62.3" height="28" fill="white" transform="translate(0.850098)"/>
</clipPath>
</defs>
</svg>
