<svg width="90" height="40" viewBox="0 0 90 40" fill="none" xmlns="http://www.w3.org/2000/svg">
<g clip-path="url(#clip0_610_6078)">
<path d="M63.6859 5.65005C61.8517 6.39751 59.6329 6.53445 56.9714 6.20898C54.7509 5.93765 52.0761 5.22245 48.3965 4.11219C43.6289 2.67352 36.3005 0.960996 30.8852 3.32739C26.6214 5.19072 25.0545 8.96804 26.6896 12.332L27.2892 12.0307C26.3897 9.90177 26.8108 7.85005 28.3067 6.23138C29.0414 5.43618 30.015 4.73752 31.2422 4.25565C36.0958 2.34952 43.9341 3.75552 48.6345 5.10085C53.0481 6.36391 56.5352 7.20285 59.791 7.10031C61.2755 7.05378 62.6549 6.79458 63.9375 6.27205L63.6859 5.65005Z" fill="#172C56"/>
<path d="M47.3477 5.98342C44.0381 7.96008 42.7728 10.3247 40.4081 13.9861C38.7547 16.5461 36.3002 21.3011 32.4445 21.3491C31.1841 21.3647 30.1893 21.024 29.6085 20.3383C29.0571 19.6874 29.05 18.9277 29.0464 18.6309L28.2956 18.6402C28.3002 19.0174 28.3265 19.9835 29.034 20.8188C29.7666 21.6836 30.9579 22.1139 32.4539 22.0951C36.9986 22.0383 40.1075 16.5962 41.5322 14.2107C43.71 10.565 45.1131 8.00701 47.7222 6.63008L47.3477 5.98342ZM52.7905 16.0843C53.5142 14.7997 54.7438 13.7727 55.2129 14.1121C55.6715 14.4441 55.1325 15.7161 54.4343 16.5487C53.8418 17.2554 52.9413 17.9867 51.9018 18.5301C51.9947 17.8781 52.2115 17.1122 52.7905 16.0843ZM60.2294 16.327C58.7277 19.2982 56.5209 20.7278 54.9563 21.075C54.0464 21.2771 53.2405 21.15 52.6865 20.7176C52.4102 20.5019 51.9582 19.9537 51.9121 19.2777C53.0937 18.7153 54.194 17.9097 54.9682 16.9907C55.8369 15.9598 56.2189 15.0021 56.1061 14.2694C56.052 13.9174 55.8818 13.6405 55.6134 13.4685C55.333 13.2886 54.9824 13.2431 54.5998 13.3381C53.7481 13.5485 52.7871 14.4461 52.0916 15.6805C51.7888 16.2178 51.1271 17.523 51.1282 18.851C50.3288 19.1897 48.9142 19.5334 48.5988 19.1179C47.6727 17.8971 51.7779 14.5886 49.9726 13.7097C49.5247 13.4917 48.5821 13.4441 47.2099 14.5601L56.6318 -3.05176e-05H55.6815L42.8828 19.6666H43.9139C45.5857 17.0809 46.4999 16.0015 47.2939 15.3422C49.117 13.8279 49.8104 14.3367 49.3115 15.1439C47.7684 17.6409 47.0656 18.8802 47.7941 19.6603C48.5409 20.4603 50.3804 19.8902 51.2012 19.5718C51.3301 20.1865 51.6495 20.786 52.2574 21.2606C52.7637 21.6559 53.414 21.8591 54.1433 21.8591C54.452 21.8591 54.7751 21.8227 55.1076 21.749C57.3023 21.2619 59.3643 19.2341 60.7119 16.5677L60.2294 16.327ZM15.6859 24.651H12.4643V39.6821H19.9094L20.6498 36.928H15.686L15.6859 24.651ZM36.5926 27.405V39.6821H39.8031V27.405H42.9537V24.651H33.4573L32.7167 27.405H36.5926ZM45.4349 39.6821H48.6784V24.6508H45.4349V39.6821ZM58.7342 24.651V31.6122C58.7342 32.6276 58.8496 33.4959 58.8496 33.4959H58.6531C58.6531 33.4959 58.4455 32.6863 58.2286 32.1068C57.9195 31.2803 55.5771 25.3275 55.3284 24.7083L55.3164 24.6511H51.9803V39.6821H55.0462V32.7212C55.0462 31.7058 54.9307 30.8375 54.9307 30.8375H55.1274C55.1274 30.8375 55.3351 31.6471 55.5519 32.2266C55.861 33.0531 58.2033 39.0059 58.4519 39.6251L58.4639 39.6821H61.7999V24.6508L58.7342 24.651ZM83.5784 30.9388L85.8849 24.651H89.4998V39.6821H86.3672V32.1666C86.3672 30.9462 86.509 29.9799 86.509 29.9799H86.2915C86.2915 29.9799 86.1585 30.5818 85.8437 31.3139C85.5288 32.0459 83.5784 36.6965 83.5784 36.6965C83.5784 36.6965 81.6277 32.0459 81.313 31.3139C80.9983 30.5818 80.8651 29.98 80.8651 29.98H80.6477C80.6477 29.98 80.7895 30.9462 80.7895 32.1667V39.6821H77.6568V24.651H81.2715L83.5784 30.9388ZM67.8593 35.2428V24.651H64.6588V35.2068C64.6588 39.1683 67.4742 40 69.7062 40C71.9381 40 74.7536 39.1683 74.7536 35.2067V24.6511H71.5529V35.2431C71.5529 36.6671 70.8607 37.3303 69.7063 37.3303C68.5517 37.3303 67.8593 36.6672 67.8593 35.2429M5.10126 32.394H3.74364V27.3782H5.10126C6.64554 27.3782 6.89094 28.8506 6.89094 29.8316C6.89094 30.8126 6.64554 32.394 5.10126 32.394ZM5.94117 24.651H0.5V39.6821H3.74364V35.1212H5.94117C9.13089 35.1212 10.12 32.065 10.12 29.886C10.12 27.7074 9.13089 24.651 5.94117 24.651ZM26.1075 34.1717L26.9563 30.3047C27.1744 29.2635 27.2252 28.5387 27.2252 28.5387H27.4692C27.4692 28.5387 27.5197 29.2635 27.7377 30.3047L28.5866 34.1717H26.1075ZM29.0663 24.651H25.6278L21.5887 39.6823H24.9277L25.6657 36.5299H29.0284L29.7665 39.6823H33.1054L29.0663 24.651Z" fill="#172C56"/>
</g>
<defs>
<clipPath id="clip0_610_6078">
<rect width="89" height="40" fill="white" transform="translate(0.5)"/>
</clipPath>
</defs>
</svg>
