<svg width="16" height="17" viewBox="0 0 16 17" fill="none" xmlns="http://www.w3.org/2000/svg">
<path fill-rule="evenodd" clip-rule="evenodd" d="M14.2621 3.24267C14.9474 3.42724 15.4879 3.96752 15.6723 4.65295C16.0151 5.90489 16.0019 8.5145 16.0019 8.5145C16.0019 8.5145 16.0019 11.1108 15.6724 12.3629C15.4879 13.0482 14.9476 13.5886 14.2621 13.773C13.0101 14.1026 8.00192 14.1026 8.00192 14.1026C8.00192 14.1026 3.00682 14.1026 1.74169 13.76C1.05627 13.5754 0.515989 13.035 0.33142 12.3497C0.00195312 11.1108 0.00195312 8.50132 0.00195312 8.50132C0.00195312 8.50132 0.00195312 5.90489 0.33142 4.65295C0.515867 3.96765 1.06945 3.41406 1.74157 3.22961C2.99364 2.90002 8.0018 2.90002 8.0018 2.90002C8.0018 2.90002 13.0101 2.90002 14.2621 3.24267ZM10.5719 8.50134L6.4072 10.9V6.10265L10.5719 8.50134Z" fill="#172C56"/>
</svg>
