<svg width="16" height="17" viewBox="0 0 16 17" fill="none" xmlns="http://www.w3.org/2000/svg">
<path fill-rule="evenodd" clip-rule="evenodd" d="M1.33545 5.43331C1.33545 3.93342 1.33545 3.18347 1.71742 2.65774C1.84077 2.48795 1.99009 2.33864 2.15988 2.21528C2.68561 1.83331 3.43556 1.83331 4.93545 1.83331H11.0688C12.5687 1.83331 13.3186 1.83331 13.8444 2.21528C14.0141 2.33864 14.1635 2.48795 14.2868 2.65774C14.6688 3.18347 14.6688 3.93342 14.6688 5.43331V11.5666C14.6688 13.0665 14.6688 13.8165 14.2868 14.3422C14.1635 14.512 14.0141 14.6613 13.8444 14.7847C13.3186 15.1666 12.5687 15.1666 11.0688 15.1666H4.93545C3.43556 15.1666 2.68561 15.1666 2.15988 14.7847C1.99009 14.6613 1.84077 14.512 1.71742 14.3422C1.33545 13.8165 1.33545 13.0665 1.33545 11.5666V5.43331ZM8.00212 4.97057C6.053 4.97057 4.4727 6.55086 4.4727 8.49998C4.4727 10.4491 6.053 12.0294 8.00212 12.0294C9.95123 12.0294 11.5315 10.4491 11.5315 8.49998C11.5315 6.55086 9.95123 4.97057 8.00212 4.97057ZM8.00212 10.7059C6.78623 10.7059 5.79623 9.71586 5.79623 8.49998C5.79623 7.28321 6.78623 6.2941 8.00212 6.2941C9.218 6.2941 10.208 7.28321 10.208 8.49998C10.208 9.71586 9.218 10.7059 8.00212 10.7059ZM12.2665 4.70587C12.2665 4.9656 12.056 5.17616 11.7962 5.17616C11.5365 5.17616 11.3259 4.9656 11.3259 4.70587C11.3259 4.44613 11.5365 4.23557 11.7962 4.23557C12.056 4.23557 12.2665 4.44613 12.2665 4.70587Z" fill="#172C56"/>
</svg>
