<svg width="16" height="17" viewBox="0 0 16 17" fill="none" xmlns="http://www.w3.org/2000/svg">
<path d="M11.7104 1.16974L9.85884 1.16669C7.77874 1.16669 6.43448 2.58341 6.43448 4.77617V6.44039H4.57287C4.41201 6.44039 4.28174 6.57436 4.28174 6.7396V9.15086C4.28174 9.31611 4.41215 9.44992 4.57287 9.44992H6.43448V15.5343C6.43448 15.6995 6.56475 15.8334 6.72561 15.8334H9.15448C9.31535 15.8334 9.44561 15.6994 9.44561 15.5343V9.44992H11.6223C11.7831 9.44992 11.9134 9.31611 11.9134 9.15086L11.9143 6.7396C11.9143 6.66026 11.8835 6.58427 11.829 6.52812C11.7745 6.47197 11.7002 6.44039 11.623 6.44039H9.44561V5.02961C9.44561 4.35154 9.60291 4.00731 10.4628 4.00731L11.7101 4.00685C11.8708 4.00685 12.001 3.87289 12.001 3.70779V1.4688C12.001 1.30386 11.8709 1.17004 11.7104 1.16974Z" fill="#172C56"/>
</svg>
