<svg width="32" height="32" viewBox="0 0 32 32" fill="none" xmlns="http://www.w3.org/2000/svg">
<circle cx="16" cy="16" r="16" fill="#172C56"/>
<path fill-rule="evenodd" clip-rule="evenodd" d="M22.2602 10.7426C22.9455 10.9271 23.4859 11.4674 23.6703 12.1528C24.0131 13.4048 23.9999 16.0144 23.9999 16.0144C23.9999 16.0144 23.9999 18.6107 23.6705 19.8627C23.4859 20.548 22.9456 21.0884 22.2602 21.2729C21.0081 21.6025 16 21.6025 16 21.6025C16 21.6025 11.0049 21.6025 9.73974 21.2598C9.05432 21.0753 8.51404 20.5349 8.32947 19.8496C8 18.6107 8 16.0012 8 16.0012C8 16.0012 8 13.4048 8.32947 12.1528C8.51391 11.4675 9.0675 10.9139 9.73962 10.7295C10.9917 10.3999 15.9998 10.3999 15.9998 10.3999C15.9998 10.3999 21.0081 10.3999 22.2602 10.7426ZM18.5699 16.0012L14.4053 18.3999V13.6025L18.5699 16.0012Z" fill="white"/>
</svg>
